<?xml version="1.0" encoding="UTF-8"?>
<svg id="Layer_2" data-name="Layer 2" xmlns="http://www.w3.org/2000/svg" viewBox="0 0 800 627.977">
  <defs>
    <style>
      .cls-1 {
        fill: #f2f2f2;
      }
    </style>
  </defs>
  <g id="Capa_1" data-name="Capa 1">
    <path class="cls-1" d="m269.711,154.549l-159.461,159.484,159.461,159.415c17.812,17.835,17.812,46.767,0,64.579-8.952,8.952-20.575,13.382-32.29,13.382s-23.338-4.43-32.29-13.382L13.382,346.3c-8.563-8.54-13.382-20.164-13.382-32.267s4.818-23.726,13.382-32.29L205.132,89.97c17.835-17.812,46.744-17.812,64.579,0,17.812,17.835,17.812,46.699,0,64.579Zm516.907,127.172l-191.728-191.773c-17.835-17.812-46.745-17.812-64.579,0-17.835,17.835-17.835,46.744,0,64.579l159.438,159.484-159.438,159.438c-17.835,17.835-17.835,46.767,0,64.579,8.952,8.952,20.598,13.382,32.29,13.382s23.361-4.43,32.29-13.382l191.728-191.728c8.563-8.563,13.382-20.187,13.382-32.29,0-12.057-4.818-23.726-13.382-32.29ZM479.822,1.459c-24.571-6.325-49.348,8.518-55.605,32.906l-137.014,536.591c-6.211,24.434,8.518,49.325,32.929,55.582,3.814.982,7.627,1.439,11.349,1.439,20.415,0,38.958-13.77,44.233-34.368L512.728,57.018c6.257-24.457-8.495-49.325-32.906-55.559Z"/>
  </g>
</svg>