<?xml version="1.0" encoding="UTF-8"?>
<svg id="Layer_2" data-name="Layer 2" xmlns="http://www.w3.org/2000/svg" viewBox="0 0 754.062 833.003">
  <defs>
    <style>
      .cls-1 {
        fill: #f2f2f2;
        stroke: #f2f2f2;
        stroke-miterlimit: 10;
        stroke-width: 33px;
      }
    </style>
  </defs>
  <g id="Capa_1" data-name="Capa 1">
    <path class="cls-1" d="m729.677,153.471L381.537,17.304c-.582-.235-1.176-.174-1.77-.309-.917-.222-1.809-.495-2.763-.495-.99,0-1.894.273-2.834.507-.557.136-1.115.087-1.658.297l-.471.186h0L24.361,153.471c-5.793,2.278-8.689,8.417-7.316,14.31-.334,1.115-.545,2.278-.545,3.478v447.182c0,4.567,2.525,8.776,6.548,10.931l348.152,185.682c.57.297,1.176.471,1.77.681.309.111.606.26.929.347,1.028.26,2.08.42,3.133.42s2.105-.161,3.133-.42c.321-.087.618-.248.929-.347.594-.21,1.2-.372,1.77-.681l348.152-185.682c4.036-2.153,6.548-6.363,6.548-10.931V171.258c0-1.2-.222-2.351-.545-3.478,1.362-5.88-1.535-12.032-7.34-14.309Zm-352.658,165.082L53.091,168.82,377.031,42.136l323.927,126.684-323.94,149.733ZM41.245,190.632l323.394,149.474v443.381L41.245,611.026V190.632Zm671.546,420.393l-323.394,172.462v-443.383l323.394-149.474v420.395h0Z"/>
  </g>
</svg>