<?xml version="1.0" encoding="UTF-8"?>
<svg id="Layer_3" data-name="Layer 3" xmlns="http://www.w3.org/2000/svg" viewBox="0 0 960.048 1001">
  <defs>
    <style>
      .cls-1 {
        fill: #f2f2f2;
      }
    </style>
  </defs>
  <path id="Inner_Circle" data-name="Inner Circle" class="cls-1" d="m691.04,500.348c0,107.803-89.478,195.189-199.863,195.189s-199.876-87.386-199.876-195.189,89.491-195.189,199.876-195.189,199.863,87.399,199.863,195.189Z"/>
  <path id="Outer_Circle" data-name="Outer Circle" class="cls-1" d="m827.749,255.35c-4.4,3.24-9.83,5.15-15.71,5.15-14.64,0-26.5-11.86-26.5-26.5,0-7.5,3.12-14.28,8.13-19.1-78.39-82.07-190.1-133.38-314.09-133.38s-235.28,51.12-313.65,132.92c5.29,4.85,8.61,11.82,8.61,19.56,0,14.64-11.86,26.5-26.5,26.5-6.15,0-11.8-2.09-16.3-5.61-51.34,69.11-81.62,154.11-81.62,246.03s30.12,176.48,81.24,245.49c4.56-3.7,10.36-5.91,16.68-5.91,14.64,0,26.5,11.86,26.5,26.5,0,7.95-3.5,15.09-9.05,19.94,78.4,82.06,190.11,133.37,314.09,133.37s236.1-51.5,314.51-133.82c-5.26-4.84-8.55-11.78-8.55-19.49,0-14.64,11.86-26.5,26.5-26.5,6.06,0,11.64,2.03,16.1,5.45,50.91-68.92,80.9-153.56,80.9-245.03s-30.14-176.55-81.29-245.57Zm-336.74,491.16c-139.32,0-252.28-110.3-252.28-246.35s112.96-246.37,252.28-246.37,252.27,110.29,252.27,246.37-112.95,246.35-252.27,246.35Z"/>
  <path id="Upper_Handle" data-name="Upper Handle" class="cls-1" d="m938.184,136.961l-111.534,111.205c-3.746,3.735-8.821,5.833-14.112,5.833h-.364c-17.435,0-26.511-20.764-14.669-33.561l69.692-75.314c24.598-26.582,13.886-70.138-20.528-81.42-12.373-4.056-26.785-5.705-42.168-5.705H155.43c-15.357,0-29.744,1.643-42.103,5.684-34.465,11.269-45.141,54.93-20.459,81.494l69.901,75.231c11.881,12.787,2.813,33.591-14.642,33.591h0c-5.276,0-10.339-2.086-14.083-5.804L22.072,137.008C-8.744,106.408-7.036,55.607,26.436,27.935,43.766,13.609,65.997,0,90.24,0h779.6c24.275,0,46.534,13.632,63.875,27.994,33.4,27.664,35.181,78.346,4.47,108.967Z"/>
  <path id="Lower_Handle" data-name="Lower Handle" class="cls-1" d="m21.864,864.039l111.534-111.205c3.746-3.735,8.821-5.833,14.112-5.833h.364c17.435,0,26.511,20.764,14.669,33.561l-69.692,75.314c-24.598,26.582-13.886,70.138,20.528,81.42,12.373,4.056,26.785,5.705,42.168,5.705h649.07c15.357,0,29.744-1.643,42.103-5.684,34.465-11.269,45.141-54.93,20.459-81.494l-69.901-75.231c-11.881-12.787-2.813-33.591,14.642-33.591h0c5.276,0,10.339,2.086,14.083,5.804l111.972,111.187c30.817,30.601,29.108,81.401-4.364,109.073-17.33,14.327-39.561,27.935-63.804,27.935H90.209c-24.275,0-46.534-13.632-63.875-27.994-33.4-27.664-35.181-78.346-4.47-108.967Z"/>
</svg>