<?xml version="1.0" encoding="UTF-8"?>
<svg id="Layer_2" data-name="Layer 2" xmlns="http://www.w3.org/2000/svg" viewBox="0 0 800 718.723">
  <defs>
    <style>
      .cls-1 {
        fill: #f2f2f2;
      }
    </style>
  </defs>
  <g id="Capa_1" data-name="Capa 1">
    <g>
      <path class="cls-1" d="m208.764,478.528c-11.435-9.035-25.767-14.012-40.354-14.012-19.825,0-38.287,8.809-50.652,24.172-10.812,13.448-15.708,30.273-13.778,47.371,1.932,17.135,10.48,32.483,24.066,43.222,11.435,9.038,25.762,14.014,40.347,14.014,19.84,0,38.304-8.826,50.66-24.204,10.802-13.426,15.693-30.231,13.771-47.322-1.927-17.135-10.47-32.493-24.059-43.241Zm-12.732,72.058c-6.724,8.373-16.8,13.177-27.64,13.177-8.08,0-15.7-2.646-22.031-7.65-7.362-5.818-11.989-14.115-13.035-23.364-1.039-9.212,1.605-18.289,7.44-25.545,6.727-8.358,16.803-13.153,27.642-13.153,8.088,0,15.71,2.646,22.038,7.647,7.359,5.818,11.984,14.12,13.025,23.374,1.036,9.205-1.602,18.262-7.44,25.513Z"/>
      <path class="cls-1" d="m468.447,327.275c9.742,0,19.161-2.134,28.019-6.355,15.658-7.492,27.421-20.598,33.113-36.906,5.663-16.205,4.644-33.643-2.862-49.087-10.738-22.136-33.672-36.441-58.425-36.441-9.761,0-19.2,2.141-28.056,6.367-15.653,7.467-27.421,20.564-33.123,36.877-5.673,16.217-4.657,33.657,2.862,49.109,10.773,22.134,33.724,36.436,58.472,36.436Zm-33.458-75.796c3.086-8.824,9.466-15.917,17.962-19.97,4.854-2.314,10.012-3.488,15.338-3.488,13.515,0,26.018,7.77,31.856,19.808,4.049,8.329,4.598,17.718,1.551,26.446-3.084,8.828-9.471,15.932-17.957,19.993-4.836,2.306-9.983,3.473-15.294,3.473-13.527,0-26.055-7.782-31.917-19.825-4.044-8.316-4.59-17.704-1.538-26.436Z"/>
      <path class="cls-1" d="m307.741,222.912c4.75,1.073,9.611,1.617,14.447,1.617,30.401,0,56.375-20.561,63.168-50.03,3.817-16.709.881-33.911-8.26-48.442-9.217-14.644-23.623-24.824-40.551-28.659-4.77-1.083-9.651-1.634-14.509-1.634-30.381,0-56.328,20.583-63.099,50.047-3.849,16.697-.933,33.901,8.211,48.442,9.225,14.664,23.645,24.844,40.593,28.659Zm-20.02-70.475c3.67-15.976,17.782-27.135,34.315-27.135,2.656,0,5.336.303,7.972.901,9.235,2.092,17.079,7.627,22.09,15.587,4.937,7.844,6.522,17.123,4.47,26.101-3.62,15.705-18.08,27.103-34.381,27.103-2.648,0-5.319-.3-7.947-.893-9.237-2.08-17.081-7.61-22.09-15.57-4.927-7.839-6.5-17.103-4.428-26.094Z"/>
      <path class="cls-1" d="m190.391,259.754c13.571-10.753,22.104-26.114,24.034-43.251,1.922-17.086-2.958-33.891-13.766-47.342-12.385-15.356-30.861-24.162-50.687-24.162-14.573,0-28.89,4.962-40.327,13.982-13.574,10.721-22.112,26.057-24.049,43.182-1.935,17.108,2.958,33.943,13.785,47.416,12.375,15.373,30.854,24.191,50.701,24.191,14.585-.002,28.902-4.979,40.308-14.017Zm-67.992-28.691c-5.848-7.275-8.494-16.362-7.45-25.587,1.044-9.237,5.666-17.522,13-23.318,6.328-4.991,13.945-7.63,22.026-7.63,10.849,0,20.948,4.799,27.679,13.145,5.821,7.251,8.459,16.316,7.423,25.523-1.041,9.264-5.668,17.578-13.025,23.406-6.298,4.989-13.896,7.627-21.967,7.627-10.861.002-20.952-4.802-27.686-13.168Z"/>
      <path class="cls-1" d="m794.351,115.245c-2.552-2.574-7.106-5.644-14.29-5.644-8.425,0-30.805,0-166.724,115.658-2.732,2.323-5.489,4.679-8.255,7.051-24.285-63.35-66.953-119.828-121.935-160.679C420.106,24.792,345.038.02,266.067,0h-.062c-53.296,0-118.08,18.622-169.079,48.607C34.411,85.358-.012,134.509,0,187c.02,63.372,35.762,89.879,64.482,111.176,23.419,17.369,41.915,31.085,41.925,61.147.007,30.059-18.479,43.763-41.885,61.115C35.811,441.723.076,468.216.096,531.595c.015,52.483,34.46,101.647,96.987,138.43,51.036,30.022,115.855,48.683,169.161,48.698h.103c96.739,0,187.679-37.339,256.077-105.144,67.526-66.938,105.082-155.663,106.069-250.212,22.929-26.092,45.142-52.026,65.42-76.463,34.694-41.807,61.371-76.303,79.291-102.528,23.741-34.735,34.137-56.04,21.147-69.131Zm-292.717,477.359c-62.833,62.289-146.382,96.584-235.284,96.584h-.094c-95.267-.027-236.599-66.215-236.626-157.603-.015-48.504,25.484-67.408,52.481-87.423,25.235-18.71,53.837-39.916,53.827-84.849-.015-44.925-28.624-66.143-53.867-84.861-27.01-20.032-52.523-38.951-52.538-87.46-.012-56.119,51.595-94.839,82.36-112.926,46.02-27.056,106.505-44.534,154.11-44.534h.052c72.584.02,141.563,22.776,199.478,65.804,53.414,39.687,94.187,95.4,115.663,157.64-64.054,55.929-133.416,120.413-185.073,172.237-85.796,11.105-97.485,68.285-106.03,110.29-7.275,35.767-11.999,53.059-39.606,55.274-6.803.546-12.343,5.681-13.404,12.422-1.063,6.739,2.631,13.33,8.937,15.941,1.775.733,44,17.987,93.333,17.989h.017c34.379,0,63.869-8.334,87.65-24.767,29.303-20.251,49.173-52.358,59.158-95.415,33.751-34.147,72.316-75.324,110.45-117.738-8.777,73.025-41.73,140.591-94.996,193.394Zm-45.124-78.452c-15.649,62.013-55.023,93.448-117.14,93.446h-.015c-16.38,0-32.065-2.235-45.252-5.021,15.752-16.064,20.672-40.239,24.932-61.181,8.115-39.892,15.789-77.645,78.57-86.613l58.905,59.37Zm203.928-233.227c-58.54,69.744-129.399,148.065-187.731,207.615l-9.03-9.102-39.845-40.16c52.887-52.646,120.733-115.42,184.034-170.357h0c7.379-6.404,14.711-12.727,21.937-18.89,73.461-62.651,111.959-89.916,131.597-101.782-11.728,19.756-38.742,58.548-100.962,132.675Z"/>
    </g>
  </g>
</svg>